<svg id="Layer_1" data-name="Layer 1" xmlns="http://www.w3.org/2000/svg" viewBox="0 0 150 150"><defs><style>.cls-1{fill:#fff;}</style></defs><title>brain</title><path class="cls-1" d="M138.89,75.4H119.23a3.21,3.21,0,1,1,0-6.41h19.65a3.21,3.21,0,1,1,0,6.41Z"/><path class="cls-1" d="M30.77,75.4H11.11a3.21,3.21,0,1,1,0-6.41H30.77a3.21,3.21,0,1,1,0,6.41Z"/><path class="cls-1" d="M120.17,120.58a3.19,3.19,0,0,1-2.26-.95l-13-13a3.21,3.21,0,1,1,4.53-4.53l13,13a3.21,3.21,0,0,1-2.27,5.47Z"/><path class="cls-1" d="M43.72,44.12a3.17,3.17,0,0,1-2.26-.94L27.56,29.29a3.21,3.21,0,1,1,4.53-4.53L46,38.65a3.21,3.21,0,0,1-2.27,5.47Z"/><path class="cls-1" d="M29.83,120.58a3.21,3.21,0,0,1-2.27-5.47l13-13a3.21,3.21,0,0,1,4.53,4.53l-13,13A3.21,3.21,0,0,1,29.83,120.58Z"/><path class="cls-1" d="M106.28,44.12A3.21,3.21,0,0,1,104,38.65l13.9-13.9a3.21,3.21,0,1,1,4.53,4.53l-13.9,13.9A3.2,3.2,0,0,1,106.28,44.12Z"/><path class="cls-1" d="M75,31.17A3.21,3.21,0,0,1,71.79,28V8.3a3.21,3.21,0,0,1,6.41,0V28A3.21,3.21,0,0,1,75,31.17Z"/><path class="cls-1" d="M75,37.48A34.24,34.24,0,0,0,40.8,71.68c0,7.51,3.35,15.29,6.58,22.81,3,7,6.15,14.3,6.15,20.74a2.4,2.4,0,0,0,2.4,2.4H94.06a2.4,2.4,0,0,0,2.4-2.4c0-6.81,3.18-14.12,6.25-21.19,3.19-7.34,6.49-14.92,6.49-22.36A34.24,34.24,0,0,0,75,37.48Zm-7,75.35a127.91,127.91,0,0,0-3-13.76c-1.48-5.9-3-12-3-15.1a7.07,7.07,0,0,1,.1-1.32,22.66,22.66,0,0,1,3,1.11c2.69,1.14,6.06,2.56,9.88,2.56s7.18-1.42,9.88-2.56a20.9,20.9,0,0,1,3-1.1,7.7,7.7,0,0,1,.1,1.32c0,3.05-1.51,9-3,14.8a123.31,123.31,0,0,0-3,14.06Zm30.27-20.7c-2.93,6.75-6,13.7-6.55,20.7h-5a130.66,130.66,0,0,1,2.83-12.88c1.6-6.34,3.11-12.32,3.11-16,0-5.38-2.83-6.18-4.52-6.18A14.43,14.43,0,0,0,83,79.32c-2.41,1-5.15,2.18-8,2.18s-5.59-1.16-8-2.18a14.43,14.43,0,0,0-5.22-1.54c-1.69,0-4.52.81-4.52,6.18,0,3.68,1.54,9.8,3.15,16.27,1.15,4.59,2.32,9.29,2.78,12.59h-5c-.61-6.69-3.56-13.56-6.43-20.24-3-7.08-6.19-14.39-6.19-20.91a29.39,29.39,0,1,1,58.78,0C104.39,78.12,101.44,84.92,98.31,92.13Z"/><path class="cls-1" d="M94.06,126.73H55.94a2.41,2.41,0,0,1,0-4.81H94.06a2.41,2.41,0,0,1,0,4.81Z"/><path class="cls-1" d="M94.06,135.82H55.94a2.41,2.41,0,0,1,0-4.82H94.06a2.41,2.41,0,0,1,0,4.82Z"/><path class="cls-1" d="M86.36,144.9H63.64a2.4,2.4,0,0,1,0-4.81H86.36a2.4,2.4,0,1,1,0,4.81Z"/></svg>