<svg id="Layer_1" data-name="Layer 1" xmlns="http://www.w3.org/2000/svg" viewBox="0 0 60 60"><defs><style>.cls-1{fill:#101010;}</style></defs><title>event</title><path class="cls-1" d="M34.89,5H6.37A1.18,1.18,0,0,0,5.19,6.22v6h-1a1.17,1.17,0,1,0,0,2.35h1v4.31h-1a1.18,1.18,0,0,0,0,2.35h1V25.5h-1a1.17,1.17,0,1,0,0,2.35h1v4.31h-1a1.17,1.17,0,1,0,0,2.35h1v4.31h-1a1.17,1.17,0,1,0,0,2.35h1v4.31h-1a1.17,1.17,0,1,0,0,2.35h1v6A1.18,1.18,0,0,0,6.37,55H34.89A5.94,5.94,0,0,0,40.83,49V11A5.94,5.94,0,0,0,34.89,5Zm3.58,44a3.58,3.58,0,0,1-3.58,3.58H7.54V47.82h2.71a1.64,1.64,0,1,0,0-2.35H7.54V41.16h2.71a1.64,1.64,0,1,0,0-2.35H7.54V34.5h2.71a1.62,1.62,0,0,0,1.14.47,1.64,1.64,0,1,0-1.14-2.81H7.54V27.85h2.71a1.64,1.64,0,1,0,0-2.35H7.54V21.19h2.71a1.64,1.64,0,1,0,0-2.35H7.54V14.53h2.71a1.62,1.62,0,0,0,1.14.47,1.64,1.64,0,1,0-1.14-2.81H7.54V7.4H34.89A3.58,3.58,0,0,1,38.48,11Z"/><path class="cls-1" d="M30,25.5H21.08a1.17,1.17,0,1,0,0,2.35H30a1.17,1.17,0,1,0,0-2.35Z"/><path class="cls-1" d="M32.27,20H18.77a3.4,3.4,0,0,0-3.39,3.4V30a3.4,3.4,0,0,0,3.39,3.4h13.5A3.4,3.4,0,0,0,35.67,30V23.35A3.4,3.4,0,0,0,32.27,20Zm1,10a1,1,0,0,1-1,1H18.77a1,1,0,0,1-1-1V23.35a1,1,0,0,1,1-1h13.5a1,1,0,0,1,1,1Z"/><path class="cls-1" d="M57,16.58a1.26,1.26,0,0,0,0-.23h0a1.25,1.25,0,0,0-.08-.23h0L52.09,5.73a1.17,1.17,0,0,0-2.13,0L45.17,16.09h0a1.32,1.32,0,0,0-.06.18v0a1.23,1.23,0,0,0,0,.25V52.13c0,2.08,3.22,2.81,6,2.82s6-.74,6-2.82V40.28h0V28.44h0V16.6h0ZM51,9l1.33,2.88a4.57,4.57,0,0,1-1.32.22h0a4.6,4.6,0,0,1-1.33-.22ZM48.7,14a6.89,6.89,0,0,0,2.32.41h0A6.88,6.88,0,0,0,53.36,14l1.11,2.4A8.18,8.18,0,0,1,51,17h0a8.18,8.18,0,0,1-3.44-.59ZM47.41,18.9a11.05,11.05,0,0,0,2.45.45v9.5a6,6,0,0,1-2.45-.64Zm2.45,33.65a5.89,5.89,0,0,1-2.45-.64V42.6a11.05,11.05,0,0,0,2.45.44Zm4.8-.64a6,6,0,0,1-2.45.64V43a11,11,0,0,0,2.45-.45Zm0-11.86a7.54,7.54,0,0,1-3.62.7,7.28,7.28,0,0,1-3.62-.7V30.76a12.49,12.49,0,0,0,3.62.49,12.36,12.36,0,0,0,3.62-.49Zm0-17.91V28.2a6,6,0,0,1-2.45.64v-9.5a11,11,0,0,0,2.45-.45C54.65,19.73,54.65,20.78,54.65,22.14Z"/><path class="cls-1" d="M49.85,33.77v4.44a1.17,1.17,0,1,0,2.35,0V33.77a1.17,1.17,0,1,0-2.35,0Z"/></svg>