<svg id="Layer_1" data-name="Layer 1" xmlns="http://www.w3.org/2000/svg" viewBox="0 0 60 60"><defs><style>.cls-1{fill:#101010;}</style></defs><title>gd</title><path class="cls-1" d="M20.22,19.45a4.17,4.17,0,1,0,4.18,4.17A4.18,4.18,0,0,0,20.22,19.45Zm0,6.41a2.24,2.24,0,1,1,2.24-2.24A2.24,2.24,0,0,1,20.22,25.86Z"/><path class="cls-1" d="M11.22,28.38a3.72,3.72,0,1,0,3.72,3.72A3.72,3.72,0,0,0,11.22,28.38Zm0,5.49A1.78,1.78,0,1,1,13,32.1,1.78,1.78,0,0,1,11.22,33.88Z"/><path class="cls-1" d="M46.15,24.79a5.09,5.09,0,1,0,5.09,5.09A5.1,5.1,0,0,0,46.15,24.79Zm0,8.24a3.15,3.15,0,1,1,3.15-3.15A3.16,3.16,0,0,1,46.15,33Z"/><path class="cls-1" d="M36,35.94a5.55,5.55,0,1,0,5.55,5.55A5.56,5.56,0,0,0,36,35.94Zm0,9.16a3.61,3.61,0,1,1,3.61-3.61A3.62,3.62,0,0,1,36,45.1Z"/><path class="cls-1" d="M48.17,16.95l-.1.09c1.56-1.54,2.8-3.24,3-4.85A3.61,3.61,0,0,0,50,9.05,3.6,3.6,0,0,0,46.88,8C44.52,8.28,42,10.76,40,13.25l.07-.1A34.8,34.8,0,0,0,30,11.68c-14.89,0-27,9.06-27,20.19,0,6.05,3.09,11.25,8.91,15a4.35,4.35,0,0,0,2.49.92c.9,0,2.18-.39,3.18-2.3a6.16,6.16,0,0,0,.15-4.87,4.12,4.12,0,1,1,5.44,2.18c-.12,0-3,1.15-3.36,3.63-.24,1.54.38,4.35,4.18,5.13h.08a36,36,0,0,0,5.94.49c14.89,0,27-9.06,27-20.2C57,26,53.59,20.64,48.17,16.95Zm-1-7.05a1.67,1.67,0,0,1,1.5.53,1.67,1.67,0,0,1,.53,1.5c-.34,2.53-4.79,5.94-7.83,7.92a4.46,4.46,0,0,0-2.13-2.11C41.18,14.7,44.59,10.23,47.13,9.89ZM39.47,21l-1,1a4.82,4.82,0,0,0-.62-.75,4.88,4.88,0,0,0-.75-.62l1-1a.38.38,0,0,1,.21-.13,1.5,1.5,0,0,1,.78.51,1.73,1.73,0,0,1,.5.72C39.6,20.75,39.61,20.81,39.47,21ZM30,50.12a34.23,34.23,0,0,1-5.58-.45h0c-2.9-.58-2.75-2.56-2.69-2.95.17-1.12,1.6-1.9,2.16-2.12A6.06,6.06,0,0,0,21.52,33a6.06,6.06,0,0,0-5.58,8.42,4.31,4.31,0,0,1-.1,3.26c-.74,1.41-1.51,1.58-2.84.64-5.27-3.4-8.06-8-8.06-13.4C4.94,21.81,16.18,13.62,30,13.62a33.32,33.32,0,0,1,8.85,1.18h0c-1.21,1.68-2.09,3.16-2.39,3.69l-3.68,3.68-.38.38,0,0a5,5,0,0,0-4.87,2.75C26.11,27.82,26,31.9,26.3,32.44a1,1,0,0,0,.8.46h.32c1.45,0,6.32-.23,8.28-3.15a5,5,0,0,0,.79-3.09l0,0,.38-.38h0l3.68-3.68a44.24,44.24,0,0,0,6.2-4.37l-.07.06c5.12,3.35,8.35,8.2,8.35,13.59C55.06,41.94,43.82,50.12,30,50.12Zm6.87-26.58-.86.86c-.07-.2-.14-.4-.22-.61a1,1,0,0,0-.52-.52L34.65,23l.86-.86c.15-.15.21-.13.26-.12A2.55,2.55,0,0,1,37,23.28C37,23.34,37,23.4,36.88,23.55Zm-2.79,5.13c-1.22,1.82-4.45,2.19-6,2.27.07-1.61.45-4.22,1.74-5.57a2.9,2.9,0,0,1,2.2-.91,6.18,6.18,0,0,1,2.11.44A4.1,4.1,0,0,1,34.09,28.68Z"/></svg>