<svg id="Layer_1" data-name="Layer 1" xmlns="http://www.w3.org/2000/svg" viewBox="0 0 60 60"><defs><style>.cls-1{fill:#101010;}</style></defs><title>id</title><path class="cls-1" d="M55.89,29.93H47.17a1.1,1.1,0,1,0,0,2.21h8.72a1.1,1.1,0,1,0,0-2.21Z"/><path class="cls-1" d="M9.39,29.84H4.11a1.1,1.1,0,1,0,0,2.21H9.39a1.1,1.1,0,1,0,0-2.21Z"/><path class="cls-1" d="M30,11.77a1.1,1.1,0,0,0,1.1-1.11V5A1.1,1.1,0,1,0,28.9,5v5.62A1.1,1.1,0,0,0,30,11.77Z"/><path class="cls-1" d="M42.62,42.09a1.1,1.1,0,0,0-1.56,1.56l6.47,6.47a1.1,1.1,0,0,0,1.56-1.56Z"/><path class="cls-1" d="M14.66,17.16a1.1,1.1,0,0,0,1.56-1.56l-3.75-3.75a1.1,1.1,0,1,0-1.56,1.56Z"/><path class="cls-1" d="M14,45.35l-3.12,3.12A1.1,1.1,0,1,0,12.47,50l3.12-3.12A1.1,1.1,0,0,0,14,45.35Z"/><path class="cls-1" d="M44.3,17.75a1.09,1.09,0,0,0,.78-.33l4-4a1.1,1.1,0,0,0-1.56-1.56l-4,4a1.11,1.11,0,0,0,.78,1.89Z"/><path class="cls-1" d="M37.17,48.57H22.83a.83.83,0,0,0,0,1.66H37.17a.83.83,0,1,0,0-1.66Z"/><path class="cls-1" d="M37.17,51.49H22.83a.83.83,0,0,0,0,1.66H37.17a.83.83,0,1,0,0-1.66Z"/><path class="cls-1" d="M34.38,54.4H25.63a.83.83,0,0,0,0,1.66h8.75a.83.83,0,0,0,0-1.66Z"/><path class="cls-1" d="M43.91,26.71c-.06-12.47-12.56-12.83-14-12.83H29c-5.89,0-12.57,3.3-13.66,12.62,0,0-.28,1.41-3.12,5.84A2.24,2.24,0,0,0,11.89,34,2.16,2.16,0,0,0,13,35.39a22,22,0,0,0,2.38,1.17,24,24,0,0,0,0,5.38c.37,2,3.29,2.38,5.66,2.38h.59a1.56,1.56,0,0,1,.34,0v2a.83.83,0,0,0,.83.83H37.28l.09,0,.08,0,.08,0,.07,0,.07,0,.06-.05.06-.05.05-.06,0-.07,0-.07,0-.07,0-.08a.46.46,0,0,0,0-.08.44.44,0,0,0,0-.08s0,0,0-.06,0,0,0,0a.1.1,0,0,0,0,0,17,17,0,0,1,.76-5.58,7.26,7.26,0,0,1,1.45-2.33c1.56-1.95,3.7-4.62,3.7-11.63ZM33.19,45.56H26.81a30,30,0,0,0-1.73-8.25,14.94,14.94,0,0,1-.93-3.93c0-.58.17-.75.75-.75a8.14,8.14,0,0,1,3.78,1.5c-.92.93-1.26,1.76-1,2.49s1,1.12,2.32,1.12,2.06-.38,2.32-1.12-.08-1.56-1-2.49a8.15,8.15,0,0,1,3.78-1.5c.58,0,.75.17.75.75a14.94,14.94,0,0,1-.93,3.93A30.12,30.12,0,0,0,33.19,45.56ZM29.3,36a3.28,3.28,0,0,1,.7-.86,3.45,3.45,0,0,1,.7.86,3.48,3.48,0,0,1-1.4,0Zm9.62,1.37a8.73,8.73,0,0,0-1.74,2.87,19.24,19.24,0,0,0-.85,5.3H34.86a29,29,0,0,1,1.63-7.74,15.78,15.78,0,0,0,1-4.44A2.23,2.23,0,0,0,35.1,31,10.13,10.13,0,0,0,30,33,10.12,10.12,0,0,0,24.9,31a2.23,2.23,0,0,0-2.41,2.41,15.87,15.87,0,0,0,1,4.44,29,29,0,0,1,1.64,7.74H23.66V44.19c0-.71-.52-1.53-2-1.53h-.59c-2.49,0-3.94-.53-4-1a26.57,26.57,0,0,1,.06-5.51.83.83,0,0,0-.52-.86A22.53,22.53,0,0,1,13.84,34c-.11-.06-.29-.19-.32-.33a.59.59,0,0,1,.1-.39C16.7,28.43,17,26.91,17,26.62c1.21-10.3,9.5-11.1,12-11.1h.9c2,0,12.28.54,12.33,11.17v.08C42.25,33.22,40.4,35.53,38.92,37.39Z"/></svg>