<svg id="Layer_1" data-name="Layer 1" xmlns="http://www.w3.org/2000/svg" viewBox="0 0 150 150"><defs><style>.cls-1{fill:#fff;}</style></defs><title>investigacion</title><path class="cls-1" d="M131.68,41.34h-101a8.63,8.63,0,0,1-8.62-8.62V21.09a8.63,8.63,0,0,1,8.62-8.62H131.54a3.74,3.74,0,0,0,0-7.47H30.68A16.12,16.12,0,0,0,14.59,21.09V128.91A16.11,16.11,0,0,0,30.68,145h88.64a16.11,16.11,0,0,0,16.1-16.09V45.07A3.73,3.73,0,0,0,131.68,41.34ZM28,137.05a8.62,8.62,0,0,1-5.9-8.15V46.28A15.86,15.86,0,0,0,28,48.56Zm100-8.15a8.62,8.62,0,0,1-8.62,8.62H33.57V48.81h94.37Z"/><path class="cls-1" d="M131.68,18.29H31a2.8,2.8,0,0,0,0,5.6H131.68a2.8,2.8,0,0,0,0-5.6Z"/><path class="cls-1" d="M131.68,29.87H31a2.8,2.8,0,0,0,0,5.6H131.68a2.8,2.8,0,0,0,0-5.6Z"/><path class="cls-1" d="M55.28,104.47h52a13.41,13.41,0,0,0,13.4-13.4V76.76a13.42,13.42,0,0,0-13.4-13.4h-52a13.42,13.42,0,0,0-13.4,13.4V91.08A13.41,13.41,0,0,0,55.28,104.47ZM47.48,76.76A7.79,7.79,0,0,1,55.28,69h52a7.8,7.8,0,0,1,7.79,7.79V91.08a7.81,7.81,0,0,1-7.79,7.79h-52a7.8,7.8,0,0,1-7.79-7.79Z"/><path class="cls-1" d="M60.09,87.65h42.35a3.73,3.73,0,1,0,0-7.47H60.09a3.73,3.73,0,1,0,0,7.47Z"/></svg>