<?xml version="1.0" encoding="utf-8"?>
<!-- Generator: Adobe Illustrator 21.0.0, SVG Export Plug-In . SVG Version: 6.00 Build 0)  -->
<svg version="1.1" id="Layer_1" xmlns="http://www.w3.org/2000/svg" xmlns:xlink="http://www.w3.org/1999/xlink" x="0px" y="0px"
	 viewBox="0 0 150 75" style="enable-background:new 0 0 150 75;" xml:space="preserve">
<style type="text/css">
	.st0{fill:#1A1A1A;}
</style>
<g>
	<path class="st0" d="M118.2,46.1c-34.4,0.6-88.1,5.9-87.7-0.9c0-0.7-0.8-1.1-1.3-0.6c-2.2,2.5-3.7,7.9-2.6,9.8
		c3.7,6.4,52,2.6,84.4,1.6C111.6,52.9,114.1,49.4,118.2,46.1z"/>
	<path class="st0" d="M146,49.3c-1.2-2.1-7.4-3-16.2-3.2c-1.3,3.3-3.4,8.4-3.9,9.6c0,0.1-0.1,0.1-0.1,0.2c8.9,0.1,14.5,0.8,14.3,2.7
		c-0.1,0.6,0.5,1.1,1.1,0.8C144.2,57.9,148.5,53.6,146,49.3z"/>
	<path class="st0" d="M29.6,4.8c-7.5-2.4-14,1.8-18.4,9.8c-0.6,0.8-2-0.6-2.6,0.8C-0.6,33.1,3,46.6,12.3,48.9
		C32.2,54,43.3,8.6,29.6,4.8z M14.7,46.6c-6.7-2.1-1.4-18.9,0.7-21.4c0,0,0.5,0.6,2.6,1.2c1.6,0.5,3.5,0.4,2.7-0.4
		c-2-2.2,3.6-18.4,9.2-16.3C38.5,13,26,50.1,14.7,46.6z"/>
	<path class="st0" d="M37.9,44.5c0.8-2.2,4.9-12.8,10.2-18.8c-1.4,3-5,13.5-5,14.9c0,1.6,4.9,4.2,5.5,4.1h0.1c1.8-3.9,3.6-7,5.2-9.5
		c-0.4,2-0.5,3.8,0.1,5c0.8,1.8,5.9,5,8.3,4.3c0.8-0.2,4.1-4,7.1-8.2c-0.6,2.5-1,4.4-1,4.8c0,1.6,5,3.8,5.4,3.5
		c0.4-0.3,0.5-0.3,0.8,0c0.3,0.3,0.8,0.2,0.9,0c0.2-0.3,3.4-6.1,4-6.8c0,1.3-0.6,3.3,1,4.9c0.6,0.6,2.5,1.8,3.4,2.1
		c0.7,0.3,0.7-0.5,1.5,0.3c0.3,0.3,1,0.1,1.1-0.2c6.9-14.8,19-32.6,22.3-29.4c0.3,0.3,2.4-3.9-2-4.3C99.1,10.6,86.3,41,85.7,42.4
		c0.8-2.9,4.4-14.2,5.1-17.2c0.3-1.3-6.5-4.5-6.9-3.3c-0.6,2.1-2.2,8.2-3.3,10.9c-0.9,2.1-4.1,7.3-4.9,8.1
		c0.9-2.6,4.1-12.8,3.8-14.7c-0.1-1.1-6.9-4.1-7.2-2.6c0,0.3-1,4.4-1.9,8.6c-3.2,5.4-8.6,11.5-9.5,10.5c-0.7-0.9,1.2-6.2,1.4-6.1
		c2.8,2.1,9-8.3,8.5-11.8c-0.3-1.1-1-1.3-1.5-1c0.3-0.8-4.3-3.5-6-3.5c-2.2-0.1-6.1,5.5-8.2,11.1c-1.2,1.7-2.7,4-4,6.3
		c0.8-2.3,2.1-5.4,3.9-10.3c0.8-2.2-3.3-4.2-5.7-4.5c-1.1-0.1-4.3,3.7-5.7,5.6c0.4-0.9,1.2-3.1,1.1-3.6c-0.2-0.8-5.7-3.6-6.1-2.2
		c-0.5,1.8-5.6,16.1-6.4,17.9C31.3,42.9,37.6,45.3,37.9,44.5z M68.7,25.3c0.2,2.3-3.7,9-5.8,9.8C63.3,32.8,67.8,25.9,68.7,25.3z"/>
	<path class="st0" d="M141.2,28.4c0.4-0.8-0.6-1.4-1.1-0.6c-3.1,5.7-9.9,12.2-9.9,12c0-0.2,4.9-10.9,5-13.5c0.1-1.9-5.4-5.5-5.8-3.5
		c-0.5,2.6-2.1,6.3-4.1,11.8c-0.5,1.3-3.7,6.2-5.3,7.3c0.5-1.6,5.2-12.7,5.4-14c0.1-0.9,0-1.3-0.6-1.9c-0.5-0.5-3.8-2.7-5-2.9
		c-0.5-0.1-0.6,0.5-0.6,0.9c0,1-0.5,2.7-1.2,4.6c-1.5,1.5-3.8,4.8-5.8,8.1c0.9-2.3,1.8-4.6,1.8-5.8c0.1-1-3.5-3.6-4.8-3
		c-0.4,0.1-1.5,2.5-2.5,5.1c-2.6,3.5-5.9,8.1-7,10.3c0.3-5.1,4.9-13.5,9.9-17.7c0.1-0.8-3.5-5-5-4.7C99.8,21.6,93,35.7,93.8,39.2
		c0.6,2.8,5.7,6.3,6.6,4.8c0.8-1.2,2.9-4.3,4.8-6.6c-0.4,1.1-0.6,2.1-0.6,2.5c0,1.8,2.9,4.7,5,3.9h0c2.5-5,5-8.6,6.9-11.2
		c-1.2,3.1-2.5,6.1-2.8,7.7c-0.1,0.7,4.3,4.2,5.4,4.2c0.9,0,2.8-1.9,4.2-3.7c-0.6,1.5-2.3,5.3-2.8,5.7c-17,12.6-2.6,21.9,3.8,8.6
		c0.8-1.6,4.9-12.2,4.9-12.2C133.6,39.6,138.7,33.1,141.2,28.4z M115.4,58.6c-1.2-0.3,1.4-5.9,3.6-7.6
		C118.9,51.2,115.8,58.7,115.4,58.6z"/>
	<path class="st0" d="M54.3,70L54.3,70l-2.6-6.3H51v7.2h0.5v-5.4c0-0.4,0-0.8,0-1.2h0l2.7,6.6h0.3l2.7-6.6h0c0,0.4-0.1,0.8-0.1,1.2
		v5.4h0.5v-7.2h-0.8L54.3,70z"/>
	<polygon class="st0" points="59.6,70.8 63.6,70.8 63.6,70.4 60.1,70.4 60.1,67.3 63.4,67.3 63.4,66.8 60.1,66.8 60.1,64.1 
		63.6,64.1 63.6,63.7 59.6,63.7 	"/>
	<path class="st0" d="M67.1,63.7h-1.9v7.2h1.7c1.2,0,2.1-0.3,2.8-0.9c0.6-0.6,0.9-1.5,0.9-2.7c0-1.1-0.3-2-0.9-2.6
		C69.1,64,68.2,63.7,67.1,63.7z M66.9,70.4h-1.2v-6.3H67c1,0,1.8,0.3,2.3,0.8c0.5,0.5,0.8,1.3,0.8,2.3C70.1,69.3,69,70.4,66.9,70.4z
		"/>
	<polygon class="st0" points="71.7,64 72.5,64.1 72.5,70.4 71.7,70.5 71.7,70.8 73.8,70.8 73.8,70.5 73,70.4 73,64.1 73.8,64 
		73.8,63.7 71.7,63.7 	"/>
	<path class="st0" d="M77.2,63.6l-2.9,7.2h0.6l1-2.5h2.9l1,2.5h0.6l-2.8-7.2H77.2z M78.6,67.9H76l1-2.6c0.1-0.3,0.2-0.5,0.3-0.9
		c0.1,0.4,0.2,0.6,0.3,0.8L78.6,67.9z"/>
	<path class="st0" d="M85.8,63.7h-1.9v7.2h1.7c1.2,0,2.1-0.3,2.8-0.9c0.6-0.6,0.9-1.5,0.9-2.7c0-1.1-0.3-2-0.9-2.6
		C87.9,64,87,63.7,85.8,63.7z M85.6,70.4h-1.2v-6.3h1.3c1,0,1.8,0.3,2.3,0.8c0.5,0.5,0.8,1.3,0.8,2.3C88.8,69.3,87.7,70.4,85.6,70.4
		z"/>
	<path class="st0" d="M93.8,63.6c-1,0-1.8,0.3-2.3,1c-0.6,0.7-0.9,1.5-0.9,2.7c0,1.1,0.3,2,0.9,2.7c0.6,0.7,1.3,1,2.3,1
		c1,0,1.8-0.3,2.3-1c0.6-0.7,0.9-1.6,0.9-2.7c0-1.1-0.3-2-0.8-2.7C95.6,63.9,94.8,63.6,93.8,63.6z M95.8,69.6
		c-0.5,0.6-1.1,0.8-2,0.8c-0.9,0-1.5-0.3-2-0.8c-0.5-0.6-0.7-1.4-0.7-2.4c0-1,0.2-1.8,0.7-2.4c0.5-0.6,1.1-0.8,2-0.8
		c0.9,0,1.5,0.3,2,0.8c0.5,0.5,0.7,1.3,0.7,2.4C96.5,68.3,96.2,69.1,95.8,69.6z"/>
	<path class="st0" d="M98.8,70c-0.3,0-0.4,0.2-0.4,0.5c0,0.3,0.1,0.5,0.4,0.5c0.3,0,0.4-0.2,0.4-0.5C99.2,70.1,99.1,70,98.8,70z"/>
</g>
</svg>
