<svg id="Layer_1" data-name="Layer 1" xmlns="http://www.w3.org/2000/svg" viewBox="0 0 150 150"><defs><style>.cls-1{fill:#fff;}</style></defs><title>planeacion</title><path class="cls-1" d="M59.26,72V57.88c3.08-1.35,5.19-3.42,5.19-6.16,0-5.28-7.71-8.05-15.32-8.05S33.8,46.43,33.8,51.72c0,2.75,2.1,4.81,5.19,6.16V72a28.49,28.49,0,0,0-18.5,26.78c0,.13,0,.25,0,.38a1.68,1.68,0,0,0,0,.19c0,.21,0,.42.06.62a28.6,28.6,0,0,0,57.16,0,5.41,5.41,0,0,0,.06-.6c0-.06,0-.13,0-.19s0-.25,0-.39A28.46,28.46,0,0,0,59.26,72ZM38.65,51.72c0-.8,3.72-3.19,10.48-3.19s10.47,2.4,10.47,3.19S55.88,54.9,49.13,54.9,38.65,52.51,38.65,51.72ZM54.41,59.3v13a9.77,9.77,0,0,1-5.31,1.21,10.14,10.14,0,0,1-5.26-1.16V59.3a30.42,30.42,0,0,0,10.57,0ZM41.12,76.37a14.22,14.22,0,0,0,8,2,14.27,14.27,0,0,0,8-2A23.62,23.62,0,0,1,71.42,90.45c-5.17-3.07-13.09-5-22.29-5s-17.12,1.89-22.29,5A23.64,23.64,0,0,1,41.12,76.37Zm8,46.18a23.8,23.8,0,0,1-21.64-14c5.16,2.85,12.81,4.6,21.64,4.6s16.47-1.75,21.63-4.6A23.8,23.8,0,0,1,49.13,122.55ZM72.87,99.63c-.46,4.16-10.44,8.69-23.74,8.69s-23.28-4.52-23.75-8.69c0-.15,0-.3,0-.45.23-4.21,10.31-8.85,23.77-8.85S72.67,95,72.89,99.19C72.89,99.34,72.88,99.48,72.87,99.63Z"/><path class="cls-1" d="M124.14,93.42V78.1c3.24-1.63,5.37-3.95,5.37-6.95,0-6.4-9.69-9.76-19.26-9.76S91,64.75,91,71.15c0,3,2.13,5.32,5.37,6.95V93.42L80.64,120.36a2.45,2.45,0,0,0-.33,1.22c0,8.72,15.42,13.42,29.93,13.42s29.94-4.7,29.94-13.42a2.45,2.45,0,0,0-.33-1.22ZM95.84,71.15c0-1.73,5.47-4.91,14.41-4.91s14.41,3.18,14.41,4.91-5.47,4.91-14.41,4.91S95.84,72.88,95.84,71.15Zm14.41,15.51a23.56,23.56,0,0,0-9,1.66V79.85a39.09,39.09,0,0,0,18.08,0v8.47A23.52,23.52,0,0,0,110.25,86.66Zm9,7.37v0c-.24.72-3.34,2.6-9,2.6s-8.82-1.89-9-2.52h0c.22-.72,3.34-2.61,9-2.61S119,93.39,119.29,94Zm-9,36.13c-14.55,0-24.1-4.58-25-8L99,98.58c2.66,1.93,7,2.91,11.28,2.91s8.63-1,11.28-2.91l13.73,23.54C134.35,125.57,124.8,130.15,110.25,130.15Z"/><path class="cls-1" d="M67,29.19a3.27,3.27,0,0,0,1.34-.29l.17-.07a3.24,3.24,0,0,0-2.71-5.88l-.13.06A3.24,3.24,0,0,0,67,29.19Z"/><path class="cls-1" d="M53.58,37.57A3.24,3.24,0,0,0,58.12,37l.1-.13a3.24,3.24,0,1,0-5.11-4L53,33A3.23,3.23,0,0,0,53.58,37.57Z"/><path class="cls-1" d="M93.71,30.33l.14.09a3.3,3.3,0,0,0,1.66.46,3.24,3.24,0,0,0,1.67-6l-.13-.07a3.23,3.23,0,1,0-3.34,5.54Z"/><path class="cls-1" d="M105.85,41.22a3.24,3.24,0,0,0,2.81-4.85l-.14-.23a3.16,3.16,0,0,0-4.37-1,3.29,3.29,0,0,0-1.1,4.46A3.21,3.21,0,0,0,105.85,41.22Z"/><path class="cls-1" d="M107,51.9c0,.06,0,.28,0,.35a3.23,3.23,0,0,0,3.22,3h.19a3.23,3.23,0,0,0,3-3.41v-.17c0-.07,0-.14,0-.19a3.3,3.3,0,0,0-3.48-3A3.17,3.17,0,0,0,107,51.9Z"/><path class="cls-1" d="M81.38,26.51h.19A3.24,3.24,0,0,0,81.76,20H81.6a3.24,3.24,0,1,0-.38,6.46Z"/><path class="cls-1" d="M33.74,35a10,10,0,1,0-10-10A10,10,0,0,0,33.74,35Zm0-15.1A5.12,5.12,0,1,1,28.61,25,5.13,5.13,0,0,1,33.74,19.86Z"/><path class="cls-1" d="M134.64,28.57a10,10,0,1,0,10,10A10,10,0,0,0,134.64,28.57Zm0,15.1a5.12,5.12,0,1,1,5.12-5.12A5.12,5.12,0,0,1,134.64,43.66Z"/><path class="cls-1" d="M25.34,49.78a10,10,0,1,0-10,10A10,10,0,0,0,25.34,49.78Zm-10,5.12a5.12,5.12,0,1,1,5.12-5.12A5.12,5.12,0,0,1,15.37,54.9Z"/></svg>