<svg id="Layer_1" data-name="Layer 1" xmlns="http://www.w3.org/2000/svg" viewBox="0 0 150 150"><defs><style>.cls-1{fill:#fff;}</style></defs><title>produccion</title><path class="cls-1" d="M103.64,54.49A111.64,111.64,0,0,0,91.39,26.18h0A130.42,130.42,0,0,0,76.61,5.63a2.26,2.26,0,0,0-3.21,0A130.18,130.18,0,0,0,58.61,26.16,111.85,111.85,0,0,0,46.35,54.49C19.69,73.91,23.92,98.39,24.12,99.44a2.2,2.2,0,0,0,2.15,1.79,2.2,2.2,0,0,0,1.38-.5c.08-.07,7.77-6.22,21-6.64,1.23,3.13,4.28,5.86,8.56,7.86v6.66c0,2.43,1.9,4.25,4.75,5.53a16.94,16.94,0,0,0-1.38,7.45c.46,11.62,11.84,21.91,12.91,22.85a2.14,2.14,0,0,0,.89.5A2.1,2.1,0,0,0,75,145a2.19,2.19,0,0,0,1.51-.61c1.17-1,12.43-11.29,12.88-22.84A16.84,16.84,0,0,0,88,114.14c2.86-1.27,4.75-3.1,4.75-5.53V102c4.28-2,7.33-4.73,8.56-7.86,13.17.42,20.95,6.58,21,6.64a2.2,2.2,0,0,0,1.38.5,2.25,2.25,0,0,0,.75-.13,2.17,2.17,0,0,0,1.4-1.65C126.08,98.39,130.31,73.91,103.64,54.49ZM75,10.45A135.35,135.35,0,0,1,87.11,27.52c-1,1-5.12,2.8-12.11,2.8s-11.18-1.84-12.13-2.78A135.56,135.56,0,0,1,75,10.45ZM28.12,95.2c-.13-6.48,1.55-21,16.8-34A57.52,57.52,0,0,0,47.1,89.77,43.87,43.87,0,0,0,28.12,95.2ZM75,139.83c-3-3-9.72-10.58-10-18.42a12.5,12.5,0,0,1,1.19-5.93,42.33,42.33,0,0,0,17.69,0A12.46,12.46,0,0,1,85,121.41C84.73,129.22,78,136.82,75,139.83Zm10.76-29.5A28.54,28.54,0,0,1,76.7,112c-.55,0-1.12,0-1.71,0s-1.15,0-1.7,0a28.54,28.54,0,0,1-9.05-1.67c-1.63-.63-2.54-1.3-2.64-1.73v-5a49,49,0,0,0,26.79,0v5C88.3,109,87.38,109.7,85.76,110.34ZM98.49,89.23c-.3.83-.63,1.65-1,2.47-.18.42-.35.85-.54,1.27a2.6,2.6,0,0,0-.14.42c-1.21,2-3.82,3.85-7.47,5.27A40.17,40.17,0,0,1,75,101.1a40.13,40.13,0,0,1-14.34-2.43c-3.66-1.42-6.27-3.31-7.47-5.27A2.61,2.61,0,0,0,53,93c-.19-.42-.36-.84-.54-1.26q-.52-1.24-1-2.48c-4.08-11.11-3.81-22-1.46-32q.31-1.31.67-2.6a104,104,0,0,1,10-23.25c3.13,2.29,8.86,3.36,14.32,3.36s11.19-1.08,14.32-3.36a104,104,0,0,1,10,23.25c.24.86.46,1.73.67,2.6C102.3,67.2,102.57,78.11,98.49,89.23Zm23.39,6a43.88,43.88,0,0,0-19-5.43,57.45,57.45,0,0,0,2.18-28.62C120.33,74.23,122,88.72,121.87,95.2Z"/><path class="cls-1" d="M75,62.24A10.45,10.45,0,1,0,64.56,51.8,10.45,10.45,0,0,0,75,62.24Zm0-16.52a6.07,6.07,0,1,1-6.08,6.08A6.08,6.08,0,0,1,75,45.72Z"/><path class="cls-1" d="M75,68.19A12.51,12.51,0,1,0,87.51,80.7,12.52,12.52,0,0,0,75,68.19Zm0,20.65a8.14,8.14,0,1,1,8.13-8.14A8.15,8.15,0,0,1,75,88.84Z"/></svg>