<svg id="Layer_1" data-name="Layer 1" xmlns="http://www.w3.org/2000/svg" viewBox="0 0 60 60"><defs><style>.cls-1{fill:#101010;}</style></defs><title>social</title><path class="cls-1" d="M50.37,35.83a8,8,0,0,0,3-6.24A6.62,6.62,0,0,0,47,22.73a6.62,6.62,0,0,0-6.34,6.85,8,8,0,0,0,3,6.24A11.84,11.84,0,0,0,37.9,42.5a11,11,0,0,0-4.41-4,8,8,0,0,0,3-6.24,6.62,6.62,0,0,0-6.35-6.85,6.62,6.62,0,0,0-6.35,6.85,8,8,0,0,0,3,6.24,11,11,0,0,0-4.38,4,11.85,11.85,0,0,0-5.76-6.76,8,8,0,0,0,3-6.24,6.62,6.62,0,0,0-6.35-6.85A6.62,6.62,0,0,0,6.9,29.46a8,8,0,0,0,3,6.24A12.2,12.2,0,0,0,3.44,46.17c0,6.06,5.6,6.76,9.8,6.76,2.47,0,5.4-.25,7.42-1.67,1.26,3.93,5.86,4.46,9.46,4.46s8.11-.52,9.42-4.36c2,1.44,5,1.7,7.45,1.7,4.21,0,9.8-.7,9.8-6.76A12.2,12.2,0,0,0,50.37,35.83ZM42.3,29.58a5,5,0,0,1,4.7-5.2,5,5,0,0,1,4.7,5.2,6.06,6.06,0,0,1-3.43,5.57,6.77,6.77,0,0,0-2.54,0A6.06,6.06,0,0,1,42.3,29.58ZM25.43,32.24A5,5,0,0,1,30.12,27a5,5,0,0,1,4.7,5.21,6.05,6.05,0,0,1-3.43,5.57,6.77,6.77,0,0,0-2.53,0A6.05,6.05,0,0,1,25.43,32.24ZM8.55,29.46a5,5,0,0,1,4.7-5.2,5,5,0,0,1,4.7,5.2A6,6,0,0,1,14.51,35a7.52,7.52,0,0,0-1.27-.12A7.52,7.52,0,0,0,12,35,6.05,6.05,0,0,1,8.55,29.46Zm4.7,21.83c-5.72,0-8.16-1.53-8.16-5.11,0-3.91,2.93-8.53,6.8-9.44a4.84,4.84,0,0,0,2.72,0c3.35.79,6,4.37,6.64,7.86A11.53,11.53,0,0,0,20.32,49c0,.14,0,.26,0,.39C19.13,50.68,16.83,51.28,13.25,51.28Zm16.88,2.79c-5.2,0-7.68-1.27-8.09-4.19a6.44,6.44,0,0,0,1-3.71,10.22,10.22,0,0,0-.1-1.36,9.25,9.25,0,0,1,5.82-5.29,4.84,4.84,0,0,0,2.72,0,9.26,9.26,0,0,1,5.83,5.33,10.29,10.29,0,0,0-.12,1.46,6.45,6.45,0,0,0,1,3.69C37.74,52.83,35.26,54.07,30.12,54.07ZM47,51.41c-3.6,0-5.89-.61-7.1-1.95,0-.17,0-.33,0-.51A11.52,11.52,0,0,0,39,44.63c.67-3.46,3.3-7,6.62-7.77a4.84,4.84,0,0,0,2.73,0c3.86.91,6.79,5.54,6.79,9.45C55.16,49.88,52.72,51.41,47,51.41Z"/><path class="cls-1" d="M32.93,19.57H27.32a.82.82,0,0,0-.82.82v2.26a.83.83,0,0,0,.33.66,5.68,5.68,0,0,0,1,.59,5.36,5.36,0,0,0,4.58,0,6,6,0,0,0,1-.6.82.82,0,0,0,.33-.66V20.39A.82.82,0,0,0,32.93,19.57Zm-.82,2.63-.42.21a3.75,3.75,0,0,1-3.18,0l-.37-.2v-1h4Z"/><path class="cls-1" d="M11.76,21.11a14.82,14.82,0,0,0,3-.3h.06a30.23,30.23,0,0,1,5.75,1.61.82.82,0,0,0,.28,0h0a.82.82,0,0,0,.82-.82.8.8,0,0,0-.15-.47,16.31,16.31,0,0,1-1.37-3.7A3.29,3.29,0,0,0,20.52,16c0-2.87-3.85-5.11-8.76-5.11S3,13.13,3,16,6.85,21.11,11.76,21.11Zm0-8.57c4.19,0,7.11,1.82,7.11,3.46a1.7,1.7,0,0,1-.21.8c-.13.24-.44.82.65,3.45a20.29,20.29,0,0,0-4.49-1.09,1.85,1.85,0,0,0-.39,0,13.28,13.28,0,0,1-2.67.26c-4.19,0-7.11-1.82-7.11-3.46S7.57,12.54,11.76,12.54Z"/><path class="cls-1" d="M39.15,22.47a.82.82,0,0,0,.28,0,30.23,30.23,0,0,1,5.75-1.61h.06a14.73,14.73,0,0,0,3,.3C53.15,21.11,57,18.86,57,16s-3.85-5.11-8.76-5.11S39.48,13.13,39.48,16a3.27,3.27,0,0,0,.36,1.48,16.07,16.07,0,0,1-1.43,3.81.82.82,0,0,0,.74,1.18Zm2.19-5.67a1.68,1.68,0,0,1-.21-.8c0-1.64,2.92-3.46,7.11-3.46s7.11,1.82,7.11,3.46-2.92,3.46-7.11,3.46a13.28,13.28,0,0,1-2.67-.26,1.85,1.85,0,0,0-.39,0,20.29,20.29,0,0,0-4.49,1.09C41.78,17.62,41.47,17,41.34,16.8Z"/><path class="cls-1" d="M26.53,16.35v1.13a.82.82,0,0,0,.82.82H32.9a.82.82,0,0,0,.82-.82V16.35a6.75,6.75,0,0,0,2.62-5.42,6.45,6.45,0,0,0-6.21-6.65,6.45,6.45,0,0,0-6.21,6.65A6.75,6.75,0,0,0,26.53,16.35Zm3.6-10.42a4.8,4.8,0,0,1,4.56,5,5.07,5.07,0,0,1-2.24,4.3.83.83,0,0,0-.38.69v.74H30.79V11.3a.82.82,0,0,0-1.65,0v5.37h-1v-.74a.83.83,0,0,0-.38-.69,5.07,5.07,0,0,1-2.24-4.3A4.8,4.8,0,0,1,30.12,5.93Z"/></svg>