<svg id="Layer_1" data-name="Layer 1" xmlns="http://www.w3.org/2000/svg" viewBox="0 0 60 60"><defs><style>.cls-1{fill:#101010;}</style></defs><title>ui</title><path class="cls-1" d="M49.23,43.46a23.38,23.38,0,0,0,4.23-12.24h2.26a1.22,1.22,0,1,0,0-2.44H53.46a23.37,23.37,0,0,0-6-14.49L49,12.67A1.22,1.22,0,1,0,47.33,11l-1.62,1.62a23.36,23.36,0,0,0-14.49-6V4.28a1.22,1.22,0,1,0-2.44,0v2.3a23.35,23.35,0,0,0-14.46,6L12.67,11A1.22,1.22,0,1,0,11,12.67l1.65,1.65a23.35,23.35,0,0,0-6,14.46H4.28a1.22,1.22,0,1,0,0,2.44H6.61a23.35,23.35,0,0,0,6,14.46L11,47.33A1.23,1.23,0,0,0,11,49a1.23,1.23,0,0,0,1.72,0l1.65-1.65a23.35,23.35,0,0,0,14.46,6v2.3a1.22,1.22,0,1,0,2.44,0v-2.3a23.33,23.33,0,0,0,12.24-4.2l3.67,3.68h0l3.3,3.3a2.46,2.46,0,0,0,3.5,0l2.26-2.27a2.46,2.46,0,0,0,0-3.49Zm2.37,5h0a.68.68,0,0,1,0,.92l-.49.49-13.9-13.9.49-.49a2.45,2.45,0,0,0,.38-.53Zm-9.92-17.2h4.48a16,16,0,0,1-2.2,7l-3.3-3.3A11.76,11.76,0,0,0,41.68,31.22Zm-2.57-8.61,3.16-3.17a16.16,16.16,0,0,1,3.89,9.34H41.67A11.7,11.7,0,0,0,39.11,22.61Zm8.8,19.54-2.62-2.62A18,18,0,0,0,48,31.22h3.64A21.54,21.54,0,0,1,47.91,42.15ZM46.14,15.58a21.52,21.52,0,0,1,5.49,13.2H48a18,18,0,0,0-4.42-10.63ZM31.22,8.4a21.57,21.57,0,0,1,13.2,5.46l-2.58,2.57A18,18,0,0,0,31.22,12Zm0,10V13.87a16.09,16.09,0,0,1,9.33,3.86L37.38,20.9a11.65,11.65,0,0,0-6.24-2.55ZM28.78,8.41V12a17.9,17.9,0,0,0-10.59,4.42l-2.58-2.58A21.57,21.57,0,0,1,28.78,8.41ZM13.91,28.78a16.09,16.09,0,0,1,3.85-9.3l3.17,3.17a11.75,11.75,0,0,0-2.54,6.13Zm7,8.57h0l-3.17,3.17a16.12,16.12,0,0,1-3.85-9.3h4.48A11.61,11.61,0,0,0,20.94,37.35ZM19.48,17.76a16.09,16.09,0,0,1,9.3-3.88v4.48a11.63,11.63,0,0,0-6.13,2.57ZM13.9,15.61l2.57,2.58a17.9,17.9,0,0,0-4.39,10.59H8.44A21.57,21.57,0,0,1,13.9,15.61Zm0,28.77A21.52,21.52,0,0,1,8.44,31.22h3.64a17.9,17.9,0,0,0,4.39,10.59Zm14.88,7.21a21.57,21.57,0,0,1-13.17-5.48l2.58-2.58A17.9,17.9,0,0,0,28.78,48Zm0-5.47a16.09,16.09,0,0,1-9.3-3.88l3.17-3.17a11.71,11.71,0,0,0,6.13,2.57ZM30,39.88a9.91,9.91,0,1,1,9.23-6.38l-1.37-1.37s0,0-.07-.05a.75.75,0,0,0-.11-.13l-.15-.15L35.35,31a5.36,5.36,0,0,0,.1-1A5.42,5.42,0,1,0,30,35.41a4.94,4.94,0,0,0,.95-.09l.82,2.24.15.14a.74.74,0,0,0,.13.12l0,.07,1.35,1.36A9.83,9.83,0,0,1,30,39.88Zm4.12-3.47a.62.62,0,0,1-.46.19.63.63,0,0,1-.33-.09L32.81,35l.11-.06c.15-.08.29-.17.43-.26l.19-.12a4.81,4.81,0,0,0,1-1l.12-.19.26-.43.06-.11,1.49.55a.65.65,0,0,1-.09.79Zm.73,4.24L38.19,44a16.12,16.12,0,0,1-7,2.18V41.65ZM29.14,30.31l1.19,3.24a2.77,2.77,0,0,1-.3,0A3.58,3.58,0,1,1,33.62,30c0,.12,0,.23,0,.34l-3.27-1.2a.91.91,0,0,0-1.17,1.17ZM33,32.06A3.71,3.71,0,0,1,32,33l-.51-1.43ZM31.22,51.6V48a17.91,17.91,0,0,0,8.3-2.68l2.62,2.63A21.57,21.57,0,0,1,31.22,51.6Zm18.12,0a.66.66,0,0,1-.91,0L34.91,38.09a2.19,2.19,0,0,0,.53-.39l.49-.48,13.9,13.9Zm5.57,1-2.26,2.26a.68.68,0,0,1-.92,0l-1.62-1.62a3.21,3.21,0,0,0,.52-.39l2.27-2.27a2.9,2.9,0,0,0,.39-.53l1.62,1.63A.64.64,0,0,1,54.91,52.65Z"/></svg>